<svg xmlns="http://www.w3.org/2000/svg" width="274" height="212.628" viewBox="0 0 274 212.628">
  <g id="Grupo_31" data-name="Grupo 31" transform="translate(-1534 -433.686)">
    <g id="Grupo_24" data-name="Grupo 24">
      <g id="Grupo_22" data-name="Grupo 22">
        <g id="Grupo_5" data-name="Grupo 5">
          <g id="Grupo_2" data-name="Grupo 2">
            <path id="Trazado_1" data-name="Trazado 1" d="M1566.1,551.748a61.4,61.4,0,0,0,60.082-61.857,47.986,47.986,0,0,0-48.977-47.639,39.292,39.292,0,0,0-38.452,39.588,30.71,30.71,0,0,0,31.345,30.489,25.146,25.146,0,0,0,24.609-25.336,19.654,19.654,0,0,0-20.06-19.513" fill="#fff"/>
          </g>
          <g id="Grupo_4" data-name="Grupo 4">
            <g id="Grupo_3" data-name="Grupo 3">
              <path id="Trazado_2" data-name="Trazado 2" d="M1566.1,556.5a4.754,4.754,0,0,1-.088-9.508,56.7,56.7,0,0,0,55.418-57.06,43.231,43.231,0,0,0-44.132-42.929,34.568,34.568,0,0,0-33.788,34.79,25.954,25.954,0,0,0,26.5,25.78,20.4,20.4,0,0,0,19.944-20.537,14.849,14.849,0,0,0-4.516-10.594,15.013,15.013,0,0,0-10.7-4.211,4.754,4.754,0,1,1-.181-9.507,24.407,24.407,0,0,1,24.9,24.223,29.943,29.943,0,0,1-29.273,30.134,35.465,35.465,0,0,1-36.191-35.2,44.109,44.109,0,0,1,43.117-44.387,52.741,52.741,0,0,1,53.823,52.347,66.237,66.237,0,0,1-64.747,66.656Z" fill="#333"/>
            </g>
          </g>
        </g>
        <g id="Grupo_9" data-name="Grupo 9">
          <g id="Grupo_6" data-name="Grupo 6">
            <path id="Trazado_3" data-name="Trazado 3" d="M1604.225,585.086a81.152,81.152,0,0,0,79.416-81.763,63.428,63.428,0,0,0-64.738-62.97,51.935,51.935,0,0,0-50.826,52.328,40.594,40.594,0,0,0,41.432,40.3,33.239,33.239,0,0,0,32.529-33.49,25.98,25.98,0,0,0-26.517-25.793" fill="#fff"/>
          </g>
          <g id="Grupo_8" data-name="Grupo 8">
            <g id="Grupo_7" data-name="Grupo 7">
              <path id="Trazado_4" data-name="Trazado 4" d="M1604.223,589.841a4.754,4.754,0,0,1-.088-9.508,76.477,76.477,0,0,0,74.751-76.966,58.672,58.672,0,0,0-59.892-58.261,47.231,47.231,0,0,0-46.163,47.531,35.839,35.839,0,0,0,36.588,35.591,28.5,28.5,0,0,0,27.863-28.691,21.223,21.223,0,0,0-21.671-21.084,4.685,4.685,0,0,1-4.845-4.663,4.755,4.755,0,0,1,4.664-4.844,30.733,30.733,0,0,1,31.362,30.5,38.046,38.046,0,0,1-37.192,38.288,45.349,45.349,0,0,1-46.279-45.01,56.769,56.769,0,0,1,55.492-57.127,68.181,68.181,0,0,1,69.583,67.68c.438,46.838-37.278,85.671-84.08,86.561Z" fill="#333"/>
            </g>
          </g>
        </g>
        <g id="Grupo_13" data-name="Grupo 13">
          <g id="Grupo_10" data-name="Grupo 10">
            <path id="Trazado_5" data-name="Trazado 5" d="M1642.345,618.424c55.056-1.048,99.269-46.567,98.752-101.67a78.87,78.87,0,0,0-80.5-78.3,64.582,64.582,0,0,0-63.2,65.069,50.477,50.477,0,0,0,51.52,50.112,41.333,41.333,0,0,0,40.449-41.644,32.306,32.306,0,0,0-32.973-32.072" fill="#fff"/>
          </g>
          <g id="Grupo_12" data-name="Grupo 12">
            <g id="Grupo_11" data-name="Grupo 11">
              <path id="Trazado_6" data-name="Trazado 6" d="M1642.344,623.179a4.754,4.754,0,0,1-.088-9.508c52.371-1,94.578-44.455,94.086-96.873a74.116,74.116,0,0,0-75.654-73.59,59.885,59.885,0,0,0-58.536,60.269,45.722,45.722,0,0,0,46.674,45.4,36.606,36.606,0,0,0,35.783-36.845,27.547,27.547,0,0,0-28.126-27.363,4.754,4.754,0,1,1-.181-9.507,37.06,37.06,0,0,1,37.817,36.781,46.149,46.149,0,0,1-45.112,46.442,55.232,55.232,0,0,1-56.365-54.822,69.421,69.421,0,0,1,67.865-69.866,83.625,83.625,0,0,1,85.345,83.009c.541,57.611-45.85,105.372-103.415,106.468Z" fill="#333"/>
            </g>
          </g>
        </g>
        <g id="Grupo_17" data-name="Grupo 17">
          <g id="Grupo_14" data-name="Grupo 14">
            <path id="Trazado_7" data-name="Trazado 7" d="M1676.549,627.588a96.2,96.2,0,0,0,94.143-96.926,75.189,75.189,0,0,0-76.743-74.647,61.568,61.568,0,0,0-60.252,62.032,48.121,48.121,0,0,0,49.116,47.774,39.4,39.4,0,0,0,38.561-39.7,30.8,30.8,0,0,0-31.434-30.576" fill="#fff"/>
          </g>
          <g id="Grupo_16" data-name="Grupo 16">
            <g id="Grupo_15" data-name="Grupo 15">
              <path id="Trazado_8" data-name="Trazado 8" d="M1676.545,632.342a4.755,4.755,0,0,1-.088-9.509c49.806-.947,89.947-42.275,89.48-92.126a70.438,70.438,0,0,0-71.9-69.938A56.868,56.868,0,0,0,1638.453,518a43.369,43.369,0,0,0,44.268,43.065,34.681,34.681,0,0,0,33.9-34.9A26.043,26.043,0,0,0,1690.03,500.3a4.821,4.821,0,0,1-4.845-4.664,4.756,4.756,0,0,1,4.664-4.844,35.553,35.553,0,0,1,36.28,35.285,44.222,44.222,0,0,1-43.227,44.5,52.877,52.877,0,0,1-53.959-52.483,66.409,66.409,0,0,1,64.916-66.832,79.944,79.944,0,0,1,81.588,79.357c.516,55.044-43.809,100.677-98.809,101.723Z" fill="#333"/>
            </g>
          </g>
        </g>
        <g id="Grupo_21" data-name="Grupo 21">
          <g id="Grupo_18" data-name="Grupo 18">
            <path id="Trazado_9" data-name="Trazado 9" d="M1713.706,641.559a91.492,91.492,0,0,0,89.536-92.182,71.51,71.51,0,0,0-72.987-70.993,58.555,58.555,0,0,0-57.3,59,45.766,45.766,0,0,0,46.711,45.436,37.475,37.475,0,0,0,36.674-37.758,29.289,29.289,0,0,0-29.9-29.078" fill="#fff"/>
          </g>
          <g id="Grupo_20" data-name="Grupo 20">
            <g id="Grupo_19" data-name="Grupo 19">
              <path id="Trazado_10" data-name="Trazado 10" d="M1713.7,646.314a4.754,4.754,0,0,1-.089-9.508c47.243-.9,85.315-40.1,84.872-87.384a66.753,66.753,0,0,0-68.141-66.285,53.855,53.855,0,0,0-52.639,54.2,41.013,41.013,0,0,0,41.866,40.726,32.747,32.747,0,0,0,32.01-32.958,24.535,24.535,0,0,0-25.049-24.371,4.7,4.7,0,0,1-4.846-4.663,4.756,4.756,0,0,1,4.665-4.844,34.045,34.045,0,0,1,34.74,33.788,42.288,42.288,0,0,1-41.339,42.556,50.524,50.524,0,0,1-51.557-50.144,63.394,63.394,0,0,1,61.968-63.8,76.265,76.265,0,0,1,77.832,75.7c.492,52.476-41.766,95.981-94.2,96.979Z" fill="#333"/>
            </g>
          </g>
        </g>
      </g>
      <g id="Grupo_23" data-name="Grupo 23">
        <path id="Trazado_11" data-name="Trazado 11" d="M1548.252,547.785l49.142-11.458a20.1,20.1,0,0,0,3.26.392c1.172-.109,3.041-.392,3.041-.392l20.054,23.638,24.469,3.337,49.535,40.583,37,8.057-8.057,18.2-56.1,14.323-97.578-35.211Z" fill="#fff"/>
      </g>
    </g>
    <g id="Grupo_30" data-name="Grupo 30">
      <g id="Grupo_29" data-name="Grupo 29">
        <g id="Grupo_25" data-name="Grupo 25">
          <path id="Trazado_12" data-name="Trazado 12" d="M1593.8,551.76a3.725,3.725,0,0,0-4.325-.689l-2.031,1.713c-.007.005-.015,0-.022,0a66.106,66.106,0,0,1-8.244,6.214l-9.851,5.16a66.389,66.389,0,0,1-15.984,4.453,3.678,3.678,0,0,0,1,7.287l.071-.01a73.7,73.7,0,0,0,39.309-18.832.721.721,0,0,0,.119-.056C1595.249,555.853,1595.723,553.736,1593.8,551.76Z" fill="#333"/>
          <path id="Trazado_13" data-name="Trazado 13" d="M1553.94,577.109a4.862,4.862,0,0,1-.769-9.671,65.385,65.385,0,0,0,15.7-4.372l9.758-5.118a65.488,65.488,0,0,0,7.9-5.951l.351-.526.232.043,1.809-1.492a4.888,4.888,0,0,1,5.737.909,5.014,5.014,0,0,1,1.6,3.822,4.4,4.4,0,0,1-1.655,3.168l-.218.152a74.8,74.8,0,0,1-39.791,18.994A5.184,5.184,0,0,1,1553.94,577.109Zm33.837-23.05a67.383,67.383,0,0,1-7.959,5.946l-9.935,5.21a67.731,67.731,0,0,1-16.364,4.575,2.49,2.49,0,0,0,.681,4.932,72.466,72.466,0,0,0,38.724-18.537l.249-.176a1.947,1.947,0,0,0,.71-1.39,2.779,2.779,0,0,0-.933-2.03,2.471,2.471,0,0,0-2.821-.512Z" fill="#333"/>
        </g>
        <g id="Grupo_26" data-name="Grupo 26">
          <path id="Trazado_14" data-name="Trazado 14" d="M1624.726,565.247a3.725,3.725,0,0,0-4.371-.266l-1.854,1.9c-.007.006-.016,0-.022.005a66.1,66.1,0,0,1-7.6,6.985l-9.3,6.093a66.339,66.339,0,0,1-15.476,5.983,3.679,3.679,0,0,0,1.708,7.156l.069-.017a73.7,73.7,0,0,0,37.295-22.56.631.631,0,0,0,.112-.068C1626.563,569.18,1626.829,567.027,1624.726,565.247Z" fill="#333"/>
          <path id="Trazado_15" data-name="Trazado 15" d="M1587.027,594.371a4.859,4.859,0,0,1-1.217-9.576,65.333,65.333,0,0,0,15.2-5.875l9.218-6.041a65.457,65.457,0,0,0,7.385-6.8l.4-.419.028,0,1.662-1.667a4.884,4.884,0,0,1,5.8.348,5,5,0,0,1,1.966,3.647,4.4,4.4,0,0,1-1.337,3.314l-.207.174a74.817,74.817,0,0,1-37.754,22.767A5.128,5.128,0,0,1,1587.027,594.371Zm32.147-26.507a66.3,66.3,0,0,1-7.567,6.948l-9.384,6.149a67.732,67.732,0,0,1-15.837,6.142,2.489,2.489,0,0,0,1.154,4.843,72.471,72.471,0,0,0,36.742-22.21l.234-.2a1.939,1.939,0,0,0,.569-1.449,2.783,2.783,0,0,0-1.128-1.93h0a2.5,2.5,0,0,0-2.856-.235Z" fill="#333"/>
        </g>
        <g id="Grupo_27" data-name="Grupo 27">
          <path id="Trazado_16" data-name="Trazado 16" d="M1658.373,578.694a3.726,3.726,0,0,0-4.379-.015l-1.742,2.006c-.007.006-.017,0-.022.006a66.058,66.058,0,0,1-7.189,7.409l-8.939,6.616a66.363,66.363,0,0,1-15.107,6.861,3.678,3.678,0,0,0,2.115,7.046c.022-.006.046-.013.068-.021a73.7,73.7,0,0,0,35.94-24.661.736.736,0,0,0,.108-.074C1660.433,582.515,1660.574,580.35,1658.373,578.694Z" fill="#333"/>
          <path id="Trazado_17" data-name="Trazado 17" d="M1622.12,609.94a4.857,4.857,0,0,1-1.479-9.5,65.242,65.242,0,0,0,14.838-6.738l8.853-6.559a65.572,65.572,0,0,0,6.986-7.215l1.96-2.2a4.888,4.888,0,0,1,5.811.013h0a5,5,0,0,1,2.171,3.529,4.4,4.4,0,0,1-1.147,3.385l-.2.186a74.806,74.806,0,0,1-36.386,24.894A5.066,5.066,0,0,1,1622.12,609.94Zm30.677-28.085a66.815,66.815,0,0,1-6.974,7.139l-9.013,6.677a67.678,67.678,0,0,1-15.463,7.042,2.5,2.5,0,0,0-1.639,3.117,2.521,2.521,0,0,0,3.069,1.652,72.472,72.472,0,0,0,35.409-24.281l.228-.219a1.939,1.939,0,0,0,.48-1.476,2.776,2.776,0,0,0-1.235-1.862h0a2.492,2.492,0,0,0-2.867-.071Z" fill="#333"/>
        </g>
        <g id="Grupo_28" data-name="Grupo 28">
          <path id="Trazado_18" data-name="Trazado 18" d="M1692.641,597.1a3.725,3.725,0,0,0-4.375-.189l-1.82,1.935c-.007.006-.016,0-.022.005a66.086,66.086,0,0,1-7.477,7.118l-9.2,6.256a66.369,66.369,0,0,1-15.368,6.256,3.678,3.678,0,0,0,1.833,7.124c.023-.005.048-.011.07-.018a73.693,73.693,0,0,0,36.89-23.215.747.747,0,0,0,.112-.07C1694.548,601,1694.775,598.842,1692.641,597.1Z" fill="#333"/>
          <path id="Trazado_19" data-name="Trazado 19" d="M1655.374,626.885a4.857,4.857,0,0,1-1.3-9.552,65.247,65.247,0,0,0,15.091-6.144l9.11-6.2a65.577,65.577,0,0,0,7.263-6.931l.406-.451.042,0,1.6-1.674a4.888,4.888,0,0,1,5.8.246,5,5,0,0,1,2.029,3.609,4.394,4.394,0,0,1-1.279,3.34l-.2.176a74.777,74.777,0,0,1-37.348,23.43A5.022,5.022,0,0,1,1655.374,626.885Zm31.525-26.793a66.673,66.673,0,0,1-7.2,6.8l-9.276,6.316a67.6,67.6,0,0,1-15.729,6.42,2.49,2.49,0,0,0,1.242,4.823,72.471,72.471,0,0,0,36.344-22.856l.219-.2a1.942,1.942,0,0,0,.554-1.469,2.779,2.779,0,0,0-1.16-1.908h0a2.475,2.475,0,0,0-2.861-.185Z" fill="#333"/>
        </g>
      </g>
    </g>
  </g>
</svg>
