<svg xmlns="http://www.w3.org/2000/svg" width="253.694" height="36.431"><g data-name="Grupo 33" fill="#333"><path data-name="Trazado 20" d="M37.131 11.246a9.709 9.709 0 00-3.527-2.251 12.488 12.488 0 00-4.339-.739 11.416 11.416 0 00-5.9 1.515 9.118 9.118 0 00-3.241 3.274 9.362 9.362 0 00-3.272-3.274 11.314 11.314 0 00-5.845-1.515 12.476 12.476 0 00-4.338.739 9.717 9.717 0 00-3.528 2.251 10.221 10.221 0 00-2.329 3.761 15.145 15.145 0 00-.814 5.182v15.574h4.946V20.19c0-2.478.6-4.325 1.775-5.488a6.148 6.148 0 014.546-1.756 6.27 6.27 0 014.6 1.785c1.21 1.18 1.823 3.017 1.823 5.459v15.574h4.946V20.19c0-2.445.606-4.283 1.8-5.462a6.761 6.761 0 019.119-.026c1.177 1.164 1.775 3.01 1.775 5.488v15.574h4.946V20.19a15.143 15.143 0 00-.815-5.182 10.208 10.208 0 00-2.328-3.762z"/><path data-name="Trazado 21" d="M73.641 12.22a13.11 13.11 0 00-4.568-2.939 15.885 15.885 0 00-5.76-1.025 15.463 15.463 0 00-5.794 1.055 13.926 13.926 0 00-4.552 2.928 13.069 13.069 0 00-2.994 4.488 15.743 15.743 0 00.056 11.474 13 13 0 007.448 7.255 14.683 14.683 0 005.323.974 13.079 13.079 0 007.095-1.911 11.241 11.241 0 003.073-2.829v4.073h4.689V22.497a15.337 15.337 0 00-1.054-5.743 13.483 13.483 0 00-2.962-4.534zm-.93 10.123a10.052 10.052 0 01-.689 3.769 8.988 8.988 0 01-1.916 2.959 8.761 8.761 0 01-2.953 1.958 10.707 10.707 0 01-7.681 0 8.757 8.757 0 01-2.954-1.959 8.969 8.969 0 01-1.91-2.958 10.653 10.653 0 010-7.538 8.98 8.98 0 011.916-2.958 8.759 8.759 0 012.953-1.958 10.708 10.708 0 017.681 0 8.768 8.768 0 012.953 1.958 9 9 0 011.916 2.958 10.053 10.053 0 01.681 3.769z"/><path data-name="Trazado 22" d="M110.194 11.698a11.6 11.6 0 00-4.22-2.578 17.186 17.186 0 00-10.762 0 11.584 11.584 0 00-4.22 2.579 11.424 11.424 0 00-2.721 4.279 16.626 16.626 0 00-.945 5.8v13.984h4.946V21.779c0-2.921.752-5.148 2.237-6.617a9.456 9.456 0 0112.168 0c1.485 1.469 2.237 3.7 2.237 6.617v13.984h4.948V21.779a16.647 16.647 0 00-.945-5.8 11.446 11.446 0 00-2.723-4.281z"/><path data-name="Trazado 23" d="M139.988 25.68c0 2.127-.521 3.682-1.549 4.622a5.941 5.941 0 01-4.208 1.443 5.861 5.861 0 01-4.226-1.461 6.1 6.1 0 01-1.532-4.6V13.561h14.923V8.923h-14.922V0h-4.946v25.68a13 13 0 00.768 4.655 9.244 9.244 0 002.207 3.4 9.023 9.023 0 003.438 2.045 13.557 13.557 0 004.29.654 13.1 13.1 0 004.243-.656 9.087 9.087 0 003.382-2.041 9.261 9.261 0 002.207-3.4 13.017 13.017 0 00.768-4.655v-1.319h-4.843z"/><path data-name="Trazado 24" d="M177.453 12.246a13.312 13.312 0 00-4.536-2.937 16.374 16.374 0 00-11.56 0 13.921 13.921 0 00-4.552 2.928 13.067 13.067 0 00-2.994 4.488 15.476 15.476 0 000 11.234 13.05 13.05 0 002.994 4.487 13.94 13.94 0 004.552 2.928 15.47 15.47 0 005.794 1.055 14.718 14.718 0 008.126-2.223 13.007 13.007 0 005.03-5.982l.44-1.047h-5.323l-.216.387a7.648 7.648 0 01-3.155 3.085 11.365 11.365 0 01-8.559.474 8.65 8.65 0 01-2.832-1.72 9.045 9.045 0 01-1.963-2.629 8.711 8.711 0 01-.8-2.548h23.544v-1.883a14.85 14.85 0 00-1.055-5.617 13.422 13.422 0 00-2.935-4.48zm-19.4 7.393a8.47 8.47 0 012.862-4.64 9.425 9.425 0 016.234-2.055 10.455 10.455 0 013.443.547 8.476 8.476 0 014.694 3.891 9.066 9.066 0 01.9 2.256z"/><path data-name="Trazado 25" d="M196.661 15.616a8.777 8.777 0 012.954-1.958 10.058 10.058 0 013.841-.712 9.794 9.794 0 015.578 1.563 8.329 8.329 0 013.249 4.192l.179.5h5l-.255-.951a13.5 13.5 0 00-1.847-4.074 12.7 12.7 0 00-3.053-3.161 14.426 14.426 0 00-4.031-2.031 16.388 16.388 0 00-10.617.326 13.926 13.926 0 00-4.552 2.928 13.056 13.056 0 00-2.994 4.488 15.476 15.476 0 000 11.234 13.054 13.054 0 002.994 4.488 13.94 13.94 0 004.552 2.928 16.382 16.382 0 0010.617.325 14.4 14.4 0 004.031-2.03 12.692 12.692 0 003.053-3.161 13.476 13.476 0 001.847-4.074l.255-.95h-5l-.179.5a8.216 8.216 0 01-3.249 4.192 9.8 9.8 0 01-5.581 1.563 10.058 10.058 0 01-3.841-.713 8.769 8.769 0 01-2.954-1.958 8.984 8.984 0 01-1.915-2.958 10.666 10.666 0 010-7.538 9 9 0 011.918-2.958z"/><path data-name="Trazado 26" d="M252.639 16.754a13.482 13.482 0 00-2.961-4.534 13.108 13.108 0 00-4.569-2.939 15.883 15.883 0 00-5.759-1.025 15.463 15.463 0 00-5.794 1.055 13.922 13.922 0 00-4.552 2.928 13.065 13.065 0 00-2.994 4.488 15.743 15.743 0 00.056 11.474 13 13 0 007.448 7.255 14.687 14.687 0 005.324.974 13.077 13.077 0 007.094-1.911 11.25 11.25 0 003.073-2.829v4.074h4.689V22.497a15.342 15.342 0 00-1.055-5.743zm-3.891 5.589a10.052 10.052 0 01-.689 3.769 9.007 9.007 0 01-1.915 2.959 8.786 8.786 0 01-2.954 1.958 10.708 10.708 0 01-7.682 0 8.762 8.762 0 01-2.953-1.959 8.964 8.964 0 01-1.915-2.958 10.652 10.652 0 010-7.538 8.965 8.965 0 011.915-2.958 8.759 8.759 0 012.953-1.958 10.708 10.708 0 017.681 0 8.779 8.779 0 012.953 1.958 9.005 9.005 0 011.916 2.959 10.054 10.054 0 01.69 3.768z"/></g></svg>